<svg width="1363" height="1542" viewBox="0 0 1363 1542" fill="none" xmlns="http://www.w3.org/2000/svg">
<path fill-rule="evenodd" clip-rule="evenodd" d="M603.737 298.697C717.876 313.792 845.559 310.734 937.234 378.986C1028.55 446.975 1042.93 562.557 1087.74 659.039C1133.64 757.862 1230.05 857.775 1205.49 956.604C1180.26 1058.16 1050.78 1100.83 962.121 1164.64C893.285 1214.18 802.307 1234.61 740.738 1291.11C655.535 1369.3 630.485 1369.86 502 1351.5C354.8 1330.47 389.814 1315.06 273.91 1224.4C209.511 1174.02 106.767 1207.56 34.7933 1166.71C-42.5946 1122.79 -90.9273 1050.32 -147.129 985.439C-220.725 900.472 -375.489 820.972 -348.793 723.86C-319.633 617.781 -90.7957 667.845 -33.8002 573.172C28.128 470.305 -139.402 289.808 -41.4764 213.386C46.8817 144.431 196.269 280.996 319.682 297.314C415.829 310.026 507.59 285.981 603.737 298.697Z" fill="#E9F5FF"/>
</svg>
