<svg width="1824" height="1749" viewBox="0 0 1824 1749" fill="none" xmlns="http://www.w3.org/2000/svg">
<path fill-rule="evenodd" clip-rule="evenodd" d="M792.186 395.558C958.653 310.72 1090.1 123.316 1276.11 140.983C1465.89 159.009 1613.07 323.31 1716.67 483.369C1813.63 633.159 1909.11 820.447 1891.5 998C1875.6 1158.31 1900.35 1443.09 1827.97 1587C1742.84 1756.24 1548.81 1856.41 1367.09 1909.9C1181.39 1964.55 1044.2 1722.05 868.428 1640.92C734.079 1578.91 574.764 1587.61 461.786 1492.04C332.451 1382.64 213.45 1241.52 196.951 1072.91C180.153 901.256 260.703 729.999 374.539 600.458C479.472 481.048 650.56 467.736 792.186 395.558Z" fill="#E9F5FF"/>
</svg>
