<svg width="43" height="43" viewBox="0 0 43 43" fill="none" xmlns="http://www.w3.org/2000/svg">
<rect opacity="0.2" width="43" height="43" rx="12" fill="white"/>
<path d="M26.9991 12.0042L24.4056 12C21.4919 12 19.6089 13.9319 19.6089 16.922V19.1914H17.0012C16.7759 19.1914 16.5934 19.3741 16.5934 19.5994V22.8875C16.5934 23.1128 16.7761 23.2953 17.0012 23.2953H19.6089V31.5922C19.6089 31.8175 19.7914 32 20.0167 32H23.419C23.6443 32 23.8268 31.8173 23.8268 31.5922V23.2953H26.8758C27.1011 23.2953 27.2836 23.1128 27.2836 22.8875L27.2848 19.5994C27.2848 19.4912 27.2417 19.3876 27.1654 19.311C27.089 19.2345 26.985 19.1914 26.8768 19.1914H23.8268V17.2676C23.8268 16.343 24.0471 15.8736 25.2516 15.8736L26.9987 15.873C27.2239 15.873 27.4063 15.6903 27.4063 15.4651V12.412C27.4063 12.1871 27.2241 12.0046 26.9991 12.0042Z" fill="white"/>
</svg>
