<svg width="50" height="46" viewBox="0 0 50 46" fill="none" xmlns="http://www.w3.org/2000/svg">
<path d="M40.624 15.6246C40.624 11.2571 34.3666 3.42257 31.5854 0.324308C31.4002 0.117868 31.1359 0 30.8586 0C30.5814 0 30.3171 0.117868 30.1319 0.324308C27.3378 3.43693 21.0933 11.2585 21.0933 15.6246C21.0933 21.0094 25.474 25.39 30.8586 25.39C36.2433 25.39 40.624 21.0094 40.624 15.6246ZM23.0463 15.6246C23.0463 12.2829 28.1499 5.62662 30.8587 2.4599C33.5676 5.62555 38.671 12.2802 38.671 15.6246C38.671 19.9323 35.1664 23.4369 30.8586 23.4369C26.5509 23.4369 23.0463 19.9323 23.0463 15.6246Z" fill="#28A9E0"/>
<path d="M40.624 38.4757C41.1634 38.4757 41.6006 38.0385 41.6006 37.4991C41.6006 36.9598 41.1634 36.5226 40.624 36.5226C40.0847 36.5226 39.6475 36.9598 39.6475 37.4991C39.6475 38.0385 40.0847 38.4757 40.624 38.4757Z" fill="#0068D6"/>
<path d="M0.976539 41.5029H4.14638C5.69049 41.5029 7.68595 42.1814 9.99663 42.9671C13.2605 44.0769 17.3226 45.4583 21.9621 45.5066C26.9888 45.5638 31.5091 44.0345 35.7381 41.428C36.26 41.1063 36.7819 40.7912 37.2897 40.4915C37.7541 40.2172 37.9083 39.6185 37.634 39.1541C37.3598 38.6897 36.7612 38.5356 36.2967 38.8097C35.7783 39.1157 35.2457 39.4373 34.7133 39.7653C30.5044 42.3594 26.3392 43.5986 21.9823 43.5537C17.6554 43.5085 13.9206 42.2385 10.6253 41.118C8.15068 40.2766 6.01343 39.5498 4.14638 39.5498H1.95308V32.714H3.02141C7.01614 32.714 9.78238 31.1687 12.0051 29.9268C13.5488 29.0644 14.8819 28.3196 16.2105 28.3196C17.653 28.3196 18.4687 28.8479 19.5014 29.5169C20.7186 30.3053 22.0983 31.1989 24.622 31.3396C31.071 31.6982 32.467 32.9193 32.467 33.2023C32.467 33.4532 31.887 33.7201 31.8033 33.7828C30.52 34.4296 27.268 35.1554 19.1402 35.1554C18.6008 35.1554 18.1636 35.5927 18.1636 36.1319C18.1636 36.6712 18.6008 37.1085 19.1402 37.1085C26.3195 37.1085 30.8094 36.5595 32.8609 35.4314C34.5836 34.8142 36.8214 34.0523 38.4 33.0984C40.69 31.7129 43.0684 31.9112 44.6602 32.3216C45.7776 32.6095 46.6988 33.0491 47.3271 33.4412C47.2751 33.4613 47.2231 33.4814 47.171 33.5015C46.4485 33.7808 45.459 34.1634 44.1993 34.7159C43.7054 34.9326 43.4806 35.5085 43.6972 36.0025C43.9138 36.4965 44.4897 36.7215 44.9837 36.5047C46.2037 35.9696 47.1698 35.596 47.8753 35.3233C48.5329 35.069 48.9931 34.891 49.3152 34.7061C50.0617 34.2774 50.1544 33.5433 49.8026 33.0341C48.6592 31.3829 42.6149 28.266 37.3895 31.4272C36.5621 31.9271 35.4688 32.3891 34.383 32.8015C34.012 30.8472 30.8442 29.7295 24.7305 29.3896C22.7246 29.2777 21.6747 28.5977 20.5631 27.8777C19.4161 27.1349 18.2301 26.3666 16.2105 26.3666C14.3734 26.3666 12.7602 27.2679 11.0526 28.2219C8.92224 29.4121 6.50756 30.7611 3.02141 30.7611H0.976539C0.437196 30.7611 0 31.1984 0 31.7376V40.5264C0 41.0656 0.437196 41.5029 0.976539 41.5029Z" fill="#0068D6"/>
</svg>
