<svg width="43" height="43" viewBox="0 0 43 43" fill="none" xmlns="http://www.w3.org/2000/svg">
<rect opacity="0.2" width="43" height="43" rx="12" fill="white"/>
<g clip-path="url(#clip0)">
<path d="M21.7067 32.0004C21.6371 32.0004 21.5676 32.0004 21.4976 32.0001C19.8515 32.0041 18.3306 31.9623 16.8515 31.8723C15.4954 31.7898 14.2575 31.3211 13.2716 30.5171C12.3202 29.7414 11.6705 28.6924 11.3406 27.3998C11.0535 26.2744 11.0383 25.1697 11.0237 24.1012C11.0131 23.3346 11.0022 22.4262 11 21.5024C11.0022 20.5747 11.0131 19.6663 11.0237 18.8996C11.0383 17.8313 11.0535 16.7266 11.3406 15.6011C11.6705 14.3084 12.3202 13.2595 13.2716 12.4837C14.2575 11.6798 15.4954 11.2111 16.8516 11.1286C18.3307 11.0387 19.852 10.9967 21.5016 11.0007C23.1482 10.9972 24.6686 11.0387 26.1477 11.1286C27.5038 11.2111 28.7417 11.6798 29.7276 12.4837C30.6792 13.2595 31.3287 14.3084 31.6586 15.6011C31.9457 16.7264 31.9609 17.8313 31.9755 18.8996C31.9861 19.6663 31.9971 20.5747 31.9992 21.4985V21.5024C31.9971 22.4262 31.9861 23.3346 31.9755 24.1012C31.9609 25.1696 31.9458 26.2743 31.6586 27.3998C31.3287 28.6924 30.6792 29.7414 29.7276 30.5171C28.7417 31.3211 27.5038 31.7898 26.1477 31.8723C24.7313 31.9585 23.2762 32.0004 21.7067 32.0004ZM21.4976 30.3595C23.1169 30.3633 24.6037 30.3225 26.0481 30.2347C27.0735 30.1724 27.9625 29.8396 28.6909 29.2457C29.3641 28.6966 29.8278 27.9391 30.0689 26.9941C30.3079 26.0573 30.3217 25.0515 30.335 24.0788C30.3454 23.3173 30.3563 22.4153 30.3586 21.5004C30.3563 20.5854 30.3454 19.6836 30.335 18.9221C30.3217 17.9494 30.3079 16.9435 30.0689 16.0066C29.8278 15.0616 29.3641 14.3041 28.6909 13.755C27.9625 13.1613 27.0735 12.8285 26.0481 12.7662C24.6037 12.6782 23.1169 12.6377 21.5014 12.6412C19.8824 12.6374 18.3955 12.6782 16.9511 12.7662C15.9257 12.8285 15.0367 13.1613 14.3083 13.755C13.6351 14.3041 13.1714 15.0616 12.9303 16.0066C12.6913 16.9435 12.6775 17.9492 12.6642 18.9221C12.6538 19.6842 12.6429 20.5867 12.6406 21.5024C12.6429 22.414 12.6538 23.3167 12.6642 24.0788C12.6775 25.0515 12.6913 26.0573 12.9303 26.9941C13.1714 27.9391 13.6351 28.6966 14.3083 29.2457C15.0367 29.8394 15.9257 30.1722 16.9511 30.2345C18.3955 30.3225 19.8828 30.3635 21.4976 30.3595ZM21.4585 26.6274C18.6316 26.6274 16.3316 24.3275 16.3316 21.5004C16.3316 18.6734 18.6316 16.3735 21.4585 16.3735C24.2855 16.3735 26.5855 18.6734 26.5855 21.5004C26.5855 24.3275 24.2855 26.6274 21.4585 26.6274ZM21.4585 18.0141C19.5362 18.0141 17.9722 19.5781 17.9722 21.5004C17.9722 23.4227 19.5362 24.9868 21.4585 24.9868C23.381 24.9868 24.9448 23.4227 24.9448 21.5004C24.9448 19.5781 23.381 18.0141 21.4585 18.0141ZM27.1597 14.7329C26.4802 14.7329 25.9292 15.2837 25.9292 15.9633C25.9292 16.643 26.4802 17.1938 27.1597 17.1938C27.8393 17.1938 28.3901 16.643 28.3901 15.9633C28.3901 15.2837 27.8393 14.7329 27.1597 14.7329Z" fill="white"/>
</g>
<defs>
<clipPath id="clip0">
<rect width="21" height="21" fill="white" transform="translate(11 11)"/>
</clipPath>
</defs>
</svg>
