<svg width="121" height="44" viewBox="0 0 121 44" fill="none" xmlns="http://www.w3.org/2000/svg">
<path d="M52.7757 18.2881L51.7628 15.5505H47.4123L46.3994 18.2881H44L48.749 6.2374H50.4926L55.1835 18.2881H52.7757ZM49.6042 9.41508L48.0765 13.5379H51.1152L49.6042 9.41508Z" fill="#0068D6"/>
<path d="M68.6667 20.317C67.9918 20.5611 67.2772 20.6825 66.5579 20.6755C65.6784 20.6793 64.8102 20.4808 64.023 20.0959C63.2358 19.7111 62.5514 19.1505 62.0247 18.4593C61.1913 18.4596 60.3663 18.2953 59.5989 17.9761C58.8315 17.657 58.1374 17.1895 57.558 16.6015C56.9681 16.0312 56.502 15.3494 56.1881 14.5974C55.8742 13.8454 55.7188 13.0387 55.7315 12.2261C55.7153 11.4065 55.8722 10.5924 56.1922 9.83521C56.5123 9.07798 56.9886 8.39398 57.5912 7.82624C58.1797 7.23428 58.8856 6.76692 59.6652 6.45302C60.4449 6.13912 61.2818 5.98532 62.1244 6.0011C62.9597 5.99571 63.7878 6.15293 64.5608 6.46365C65.3337 6.77437 66.0363 7.23244 66.6277 7.81135C67.2191 8.39025 67.6877 9.0785 68.0064 9.83629C68.325 10.5941 68.4874 11.4063 68.4841 12.2261C68.4944 13.4769 68.1181 14.7013 67.4047 15.7379C66.715 16.7588 65.7245 17.5489 64.5653 18.003C65.1615 18.504 65.9225 18.7761 66.7073 18.7689C67.2733 18.7596 67.8341 18.6606 68.3678 18.4756L68.6667 20.317ZM59.2351 15.1512C60.0088 15.8831 61.0415 16.292 62.1161 16.292C63.1906 16.292 64.2233 15.8831 64.997 15.1512C65.383 14.7726 65.6865 14.321 65.8892 13.8238C66.0919 13.3265 66.1894 12.7941 66.176 12.2587C66.1912 11.717 66.0946 11.1779 65.892 10.6738C65.6894 10.1697 65.385 9.71106 64.997 9.32545C64.6191 8.95345 64.1701 8.6583 63.6757 8.45691C63.1813 8.25552 62.6513 8.15186 62.1161 8.15186C61.5808 8.15186 61.0508 8.25552 60.5564 8.45691C60.062 8.6583 59.613 8.95345 59.2351 9.32545C58.8492 9.70914 58.5459 10.1651 58.3434 10.6663C58.1408 11.1674 58.0431 11.7034 58.0561 12.2424C58.0404 12.7805 58.1369 13.3161 58.3396 13.8163C58.5423 14.3165 58.8471 14.7707 59.2351 15.1512Z" fill="#0068D6"/>
<path d="M71.9379 17.3185C71.4815 16.8821 71.1264 16.3539 70.8972 15.7703C70.6679 15.1867 70.5698 14.5614 70.6095 13.9372V6.21295H72.8844V13.7416C72.8844 15.4201 73.7977 16.3082 75.3088 16.3082C76.8198 16.3082 77.7331 15.3956 77.7331 13.7416V6.21295H80.0246V13.9372C80.0643 14.5614 79.9662 15.1867 79.7369 15.7703C79.5077 16.3539 79.1526 16.8821 78.6962 17.3185C77.7355 18.0681 76.5444 18.4762 75.3171 18.4762C74.0897 18.4762 72.8986 18.0681 71.9379 17.3185Z" fill="#0068D6"/>
<path d="M90.0706 18.2881L89.0577 15.5505H84.6823L83.6943 18.2881H81.2866L86.0356 6.2374H87.7791L92.4783 18.2881H90.0706ZM86.899 9.41508L85.3714 13.5379H88.4101L86.899 9.41508Z" fill="#0068D6"/>
<path d="M95.4756 8.364H91.9387V6.21295H101.287V8.364H97.7505V18.2881H95.4756V8.364Z" fill="#0068D6"/>
<path d="M103.072 6.21295H105.347V18.2881H103.072V6.21295Z" fill="#0068D6"/>
<path d="M120.541 20.317C119.866 20.5611 119.151 20.6825 118.432 20.6755C117.552 20.6793 116.684 20.4808 115.897 20.0959C115.11 19.7111 114.425 19.1505 113.899 18.4593C113.065 18.4596 112.24 18.2953 111.473 17.9761C110.706 17.657 110.011 17.1895 109.432 16.6015C108.842 16.0312 108.376 15.3494 108.062 14.5974C107.748 13.8454 107.593 13.0387 107.605 12.2261C107.589 11.4065 107.746 10.5924 108.066 9.83521C108.386 9.07798 108.863 8.39398 109.465 7.82624C110.054 7.23428 110.76 6.76692 111.539 6.45302C112.319 6.13912 113.156 5.98532 113.998 6.0011C114.836 5.99246 115.667 6.14727 116.442 6.45653C117.218 6.7658 117.924 7.22335 118.518 7.80259C119.112 8.38182 119.583 9.07117 119.903 9.83057C120.223 10.59 120.386 11.4043 120.383 12.2261C120.393 13.4769 120.017 14.7013 119.304 15.7379C118.614 16.7588 117.623 17.5489 116.464 18.003C117.06 18.504 117.821 18.7761 118.606 18.7689C119.172 18.7596 119.733 18.6606 120.267 18.4756L120.541 20.317ZM111.109 15.1512C111.883 15.8831 112.916 16.292 113.99 16.292C115.065 16.292 116.097 15.8831 116.871 15.1512C117.257 14.7726 117.561 14.321 117.763 13.8238C117.966 13.3265 118.063 12.7941 118.05 12.2587C118.065 11.717 117.969 11.1779 117.766 10.6738C117.563 10.1697 117.259 9.71106 116.871 9.32545C116.493 8.95345 116.044 8.6583 115.55 8.45691C115.055 8.25552 114.525 8.15186 113.99 8.15186C113.455 8.15186 112.925 8.25552 112.43 8.45691C111.936 8.6583 111.487 8.95345 111.109 9.32545C110.723 9.70914 110.42 10.1651 110.217 10.6663C110.015 11.1674 109.917 11.7034 109.93 12.2424C109.914 12.7805 110.011 13.3161 110.214 13.8163C110.416 14.3165 110.721 14.7707 111.109 15.1512Z" fill="#0068D6"/>
<path d="M45.2702 37.8432V25.7679H47.5451V35.684H53.855V37.8432H45.2702Z" fill="#28A9E0"/>
<path d="M55.665 37.8432V25.7679H57.9399V35.684H64.2498V37.8432H55.665Z" fill="#28A9E0"/>
<path d="M66.5744 36.2869C65.4066 35.0763 64.7558 33.4726 64.7558 31.8056C64.7558 30.1385 65.4066 28.5348 66.5744 27.3242C67.1644 26.7466 67.867 26.2917 68.6402 25.9865C69.4133 25.6813 70.2412 25.5322 71.0744 25.548C72.0989 25.5239 73.1145 25.7397 74.0371 26.1776C74.9597 26.6154 75.7627 27.2626 76.3797 28.0657L74.8354 29.516C74.4189 28.9519 73.8724 28.4924 73.2403 28.1752C72.6083 27.858 71.9088 27.692 71.1989 27.6909C70.6562 27.684 70.1178 27.7859 69.6167 27.9905C69.1156 28.195 68.6624 28.4979 68.2848 28.8805C67.8975 29.2699 67.5936 29.7316 67.3911 30.2382C67.1887 30.7448 67.0916 31.286 67.1058 31.83C67.0892 32.3644 67.1837 32.8964 67.3836 33.3937C67.5834 33.891 67.8844 34.3431 68.2682 34.7225C68.6504 35.0981 69.1068 35.393 69.6093 35.5891C70.1119 35.7853 70.65 35.8786 71.1906 35.8632C71.9131 35.8757 72.6279 35.7152 73.273 35.3958C73.9182 35.0764 74.4744 34.6076 74.8936 34.03L76.471 35.4395C75.8339 36.246 75.0151 36.8966 74.0788 37.3405C73.1425 37.7844 72.1142 38.0094 71.0744 37.998C70.2463 38.0187 69.4223 37.8782 68.6499 37.5845C67.8775 37.2908 67.1721 36.8498 66.5744 36.2869Z" fill="#28A9E0"/>
<path d="M31.5414 16.012C31.0903 15.3998 17.6794 0 17.6794 0C17.6794 0 4.2653 15.3998 3.82062 15.99C1.91855 18.5098 0.766916 21.4986 0.494097 24.6231C0.221277 27.7475 0.83799 30.885 2.27549 33.6857C3.71299 36.4864 5.9148 38.8403 8.63547 40.485C11.3562 42.1297 14.4888 43.0006 17.6842 43.0006C20.8797 43.0006 24.0123 42.1297 26.733 40.485C29.4537 38.8403 31.6555 36.4864 33.093 33.6857C34.5305 30.885 35.1472 27.7475 34.8744 24.6231C34.6015 21.4986 33.4499 18.5098 31.5478 15.99L31.5414 16.012Z" fill="white"/>
<path d="M3.81341 16.012C1.98425 18.438 0.84894 21.2997 0.524962 24.3009C0.200983 27.3021 0.700111 30.3337 1.97069 33.082C3.36553 24.7746 7.22053 12.3638 17.6786 0C17.6786 0 4.2645 15.3998 3.81981 15.99L3.81341 16.012Z" fill="#0068D6"/>
<path d="M17.6786 0C17.6786 0 1.36284 20.1154 8.74332 40.5542C11.4355 42.1627 14.5268 43.0132 17.6786 43.0125C18.4944 43.0098 19.309 42.9511 20.1164 42.8367C13.139 37.4774 3.76542 24.897 17.6786 0Z" fill="#0068D6"/>
<path d="M29.2244 38.6454L29.1668 38.7019L29.2244 38.6454Z" fill="#0085C8"/>
<path d="M34.9285 26.0587C34.9275 22.4397 33.7396 18.9171 31.5406 16.012C31.0895 15.3998 17.6786 0 17.6786 0C17.6786 0 4.01495 29.6378 29.2212 38.6422C31.0207 37.0566 32.4592 35.1162 33.4426 32.9479C34.4261 30.7796 34.9324 28.4321 34.9285 26.0587Z" fill="#0068D6"/>
</svg>
