<svg width="121" height="44" viewBox="0 0 121 44" fill="none" xmlns="http://www.w3.org/2000/svg">
<path d="M52.3468 18.2881L51.3339 15.5504H46.9834L45.9705 18.2881H43.5711L48.3201 6.2373H50.0636L54.7545 18.2881H52.3468ZM49.1753 9.41499L47.6476 13.5378H50.6863L49.1753 9.41499Z" fill="white"/>
<path d="M68.2378 20.317C67.5628 20.5611 66.8482 20.6825 66.129 20.6755C65.2495 20.6793 64.3813 20.4808 63.5941 20.0959C62.8068 19.7111 62.1225 19.1505 61.5958 18.4593C60.7624 18.4596 59.9373 18.2953 59.17 17.9761C58.4026 17.657 57.7085 17.1895 57.1291 16.6015C56.5391 16.0312 56.0731 15.3494 55.7592 14.5974C55.4452 13.8454 55.2899 13.0387 55.3025 12.2261C55.2864 11.4065 55.4432 10.5924 55.7633 9.83521C56.0834 9.07798 56.5597 8.39398 57.1623 7.82624C57.7508 7.23428 58.4566 6.76692 59.2363 6.45302C60.0159 6.13912 60.8529 5.98532 61.6954 6.0011C62.5307 5.99571 63.3588 6.15293 64.1318 6.46365C64.9048 6.77437 65.6074 7.23244 66.1988 7.81135C66.7902 8.39025 67.2588 9.0785 67.5774 9.83629C67.8961 10.5941 68.0585 11.4063 68.0551 12.2261C68.0655 13.4769 67.6892 14.7013 66.9758 15.7379C66.2861 16.7588 65.2956 17.5489 64.1364 18.003C64.7325 18.504 65.4935 18.7761 66.2784 18.7689C66.8444 18.7596 67.4052 18.6606 67.9389 18.4756L68.2378 20.317ZM58.8062 15.1512C59.5798 15.8831 60.6126 16.292 61.6871 16.292C62.7617 16.292 63.7944 15.8831 64.5681 15.1512C64.9541 14.7726 65.2576 14.321 65.4603 13.8238C65.6629 13.3265 65.7605 12.7941 65.7471 12.2587C65.7623 11.717 65.6657 11.1779 65.4631 10.6738C65.2605 10.1697 64.956 9.71106 64.5681 9.32545C64.1902 8.95345 63.7411 8.6583 63.2468 8.45691C62.7524 8.25552 62.2224 8.15186 61.6871 8.15186C61.1519 8.15186 60.6219 8.25552 60.1275 8.45691C59.6331 8.6583 59.1841 8.95345 58.8062 9.32545C58.4203 9.70914 58.117 10.1651 57.9144 10.6663C57.7119 11.1674 57.6142 11.7034 57.6272 12.2424C57.6115 12.7805 57.708 13.3161 57.9107 13.8163C58.1134 14.3165 58.4181 14.7707 58.8062 15.1512Z" fill="white"/>
<path d="M71.509 17.3185C71.0525 16.882 70.6975 16.3539 70.4682 15.7703C70.239 15.1867 70.1408 14.5614 70.1806 13.9371V6.21289H72.4555V13.7416C72.4555 15.42 73.3688 16.3081 74.8798 16.3081C76.3909 16.3081 77.3041 15.3956 77.3041 13.7416V6.21289H79.5956V13.9371C79.6354 14.5614 79.5373 15.1867 79.308 15.7703C79.0787 16.3539 78.7237 16.882 78.2672 17.3185C77.3065 18.0681 76.1154 18.4761 74.8881 18.4761C73.6608 18.4761 72.4697 18.0681 71.509 17.3185Z" fill="white"/>
<path d="M89.6417 18.2881L88.6288 15.5504H84.2534L83.2654 18.2881H80.8576L85.6067 6.2373H87.3502L92.0494 18.2881H89.6417ZM86.4701 9.41499L84.9425 13.5378H87.9812L86.4701 9.41499Z" fill="white"/>
<path d="M95.0467 8.36394H91.5098V6.21289H100.858V8.36394H97.3215V18.2881H95.0467V8.36394Z" fill="white"/>
<path d="M102.643 6.21289H104.918V18.2881H102.643V6.21289Z" fill="white"/>
<path d="M120.112 20.317C119.437 20.5611 118.722 20.6825 118.003 20.6755C117.123 20.6793 116.255 20.4808 115.468 20.0959C114.681 19.7111 113.996 19.1505 113.47 18.4593C112.636 18.4596 111.811 18.2953 111.044 17.9761C110.277 17.657 109.583 17.1895 109.003 16.6015C108.413 16.0312 107.947 15.3494 107.633 14.5974C107.319 13.8454 107.164 13.0387 107.177 12.2261C107.16 11.4065 107.317 10.5924 107.637 9.83521C107.957 9.07798 108.434 8.39398 109.036 7.82624C109.625 7.23428 110.331 6.76692 111.11 6.45302C111.89 6.13912 112.727 5.98532 113.569 6.0011C114.407 5.99246 115.238 6.14727 116.014 6.45653C116.789 6.7658 117.495 7.22335 118.089 7.80259C118.683 8.38182 119.154 9.07117 119.474 9.83057C119.794 10.59 119.957 11.4043 119.954 12.2261C119.964 13.4769 119.588 14.7013 118.875 15.7379C118.185 16.7588 117.195 17.5489 116.035 18.003C116.631 18.504 117.392 18.7761 118.177 18.7689C118.743 18.7596 119.304 18.6606 119.838 18.4756L120.112 20.317ZM110.68 15.1512C111.454 15.8831 112.487 16.292 113.561 16.292C114.636 16.292 115.668 15.8831 116.442 15.1512C116.828 14.7726 117.132 14.321 117.334 13.8238C117.537 13.3265 117.635 12.7941 117.621 12.2587C117.636 11.717 117.54 11.1779 117.337 10.6738C117.135 10.1697 116.83 9.71106 116.442 9.32545C116.064 8.95345 115.615 8.6583 115.121 8.45691C114.626 8.25552 114.096 8.15186 113.561 8.15186C113.026 8.15186 112.496 8.25552 112.002 8.45691C111.507 8.6583 111.058 8.95345 110.68 9.32545C110.294 9.70914 109.991 10.1651 109.788 10.6663C109.586 11.1674 109.488 11.7034 109.501 12.2424C109.486 12.7805 109.582 13.3161 109.785 13.8163C109.987 14.3165 110.292 14.7707 110.68 15.1512Z" fill="white"/>
<path d="M44.8413 37.843V25.7678H47.1162V35.6838H53.4261V37.843H44.8413Z" fill="white"/>
<path d="M55.2361 37.843V25.7678H57.511V35.6838H63.8209V37.843H55.2361Z" fill="white"/>
<path d="M66.1455 36.2869C64.9777 35.0763 64.3268 33.4726 64.3268 31.8055C64.3268 30.1385 64.9777 28.5348 66.1455 27.3242C66.7355 26.7466 67.4381 26.2916 68.2112 25.9865C68.9844 25.6813 69.8123 25.5321 70.6455 25.548C71.67 25.5239 72.6856 25.7397 73.6082 26.1775C74.5308 26.6154 75.3338 27.2626 75.9508 28.0657L74.4065 29.516C73.99 28.9518 73.4434 28.4924 72.8114 28.1752C72.1794 27.858 71.4799 27.692 70.77 27.6909C70.2273 27.6839 69.6889 27.7859 69.1878 27.9905C68.6867 28.195 68.2334 28.4979 67.8558 28.8804C67.4686 29.2699 67.1647 29.7315 66.9622 30.2381C66.7597 30.7447 66.6627 31.286 66.6769 31.83C66.6603 32.3643 66.7548 32.8964 66.9546 33.3937C67.1545 33.891 67.4555 34.3431 67.8392 34.7225C68.2214 35.098 68.6779 35.3929 69.1804 35.5891C69.683 35.7853 70.2211 35.8785 70.7617 35.8632C71.4842 35.8756 72.1989 35.7152 72.8441 35.3958C73.4893 35.0764 74.0455 34.6076 74.4646 34.0299L76.0421 35.4395C75.4049 36.2459 74.5861 36.8966 73.6498 37.3405C72.7135 37.7844 71.6852 38.0094 70.6455 37.998C69.8174 38.0187 68.9934 37.8781 68.221 37.5844C67.4486 37.2908 66.7432 36.8497 66.1455 36.2869Z" fill="white"/>
<path d="M31.1125 16.012C30.6614 15.3998 17.2505 0 17.2505 0C17.2505 0 3.83638 15.3998 3.3917 15.99C1.48962 18.5098 0.337991 21.4986 0.0651721 24.6231C-0.207647 27.7475 0.409065 30.885 1.84657 33.6857C3.28407 36.4864 5.48587 38.8403 8.20655 40.485C10.9272 42.1297 14.0599 43.0006 17.2553 43.0006C20.4507 43.0006 23.5834 42.1297 26.3041 40.485C29.0247 38.8403 31.2265 36.4864 32.664 33.6857C34.1015 30.885 34.7182 27.7475 34.4454 24.6231C34.1726 21.4986 33.021 18.5098 31.1189 15.99L31.1125 16.012Z" fill="#0068D6"/>
<path d="M3.38449 16.012C1.55533 18.438 0.420016 21.2997 0.0960371 24.3009C-0.227942 27.3021 0.271186 30.3337 1.54177 33.082C2.9366 24.7746 6.7916 12.3638 17.2497 0C17.2497 0 3.83557 15.3998 3.39089 15.99L3.38449 16.012Z" fill="white"/>
<path d="M17.2497 0C17.2497 0 0.933916 20.1154 8.3144 40.5542C11.0066 42.1627 14.0978 43.0132 17.2497 43.0125C18.0655 43.0098 18.88 42.9511 19.6874 42.8367C12.7101 37.4774 3.33649 24.897 17.2497 0Z" fill="white"/>
<path d="M28.7955 38.6453L28.7379 38.7018L28.7955 38.6453Z" fill="#0085C8"/>
<path d="M34.4996 26.0587C34.4985 22.4397 33.3107 18.9171 31.1117 16.012C30.6606 15.3998 17.2497 0 17.2497 0C17.2497 0 3.58603 29.6378 28.7923 38.6422C30.5918 37.0566 32.0303 35.1162 33.0137 32.9479C33.9971 30.7796 34.5035 28.4321 34.4996 26.0587Z" fill="white"/>
</svg>
