<svg width="47" height="47" viewBox="0 0 47 47" fill="none" xmlns="http://www.w3.org/2000/svg">
<g clip-path="url(#clip0)">
<path d="M8.23283 21.3145C8.554 22.513 7.72366 24.3773 8.5775 25.8422C9.43133 27.307 11.4993 27.5655 12.3218 28.3958C12.8415 29.1323 13.2851 29.9197 13.6457 30.7458L9.494 42.864C9.29827 43.4943 9.51856 44.1797 10.0449 44.5779C10.5712 44.9762 11.2906 45.0018 11.844 44.6422L14.4447 42.8013L15.3612 45.8485C15.5547 46.5023 16.1488 46.9559 16.8305 46.9702C17.5122 46.9845 18.1249 46.5563 18.3457 45.9112L22.4033 34.2317C23.1041 34.5294 23.8959 34.5294 24.5967 34.2317L28.623 45.9425C28.8438 46.5876 29.4565 47.0158 30.1381 47.0015C30.8198 46.9872 31.414 46.5336 31.6075 45.8798L32.524 42.8327L35.1247 44.65C35.678 45.0097 36.3975 44.984 36.9238 44.5857C37.4501 44.1875 37.6704 43.5021 37.4747 42.8718L33.3543 30.7772C33.7163 29.9533 34.157 29.1663 34.6703 28.4272C35.5242 27.5498 37.6 27.3148 38.4225 25.85C39.245 24.3852 38.4617 22.4817 38.7672 21.3223C39.0727 20.163 40.7333 18.9488 40.7333 17.2333C40.7333 15.5178 39.057 14.241 38.7672 13.1443C38.4773 12.0477 39.2763 10.0815 38.4225 8.61666C37.5687 7.15183 35.5007 6.89333 34.6782 6.063C33.8557 5.23267 33.5972 3.13333 32.1167 2.303C30.6362 1.47267 28.7483 2.303 27.589 1.96617C26.4297 1.62933 25.2233 0 23.5 0C21.7767 0 20.5155 1.6685 19.411 1.96617C18.189 2.28733 16.356 1.44917 14.8833 2.303C13.4107 3.15683 13.1678 5.217 12.3297 6.05517C11.4915 6.89333 9.4 7.13616 8.61666 8.61666C7.83333 10.0972 8.61666 11.985 8.272 13.1443C7.92733 14.3037 6.26666 15.5022 6.26666 17.2333C6.26666 18.9645 7.93516 20.2022 8.23283 21.3145ZM16.8965 45.4333L15.98 42.3705C15.8252 41.8929 15.4509 41.5185 14.9735 41.3635C14.496 41.2084 13.9731 41.2916 13.5673 41.5872L10.9667 43.4045C15.1653 31.1767 14.805 32.1167 14.8833 32.1167C16.3247 32.9548 18.2517 32.1167 19.411 32.4535C19.976 32.696 20.5035 33.0178 20.9777 33.4092L16.8965 45.4333ZM33.4327 41.5167C33.0161 41.2229 32.4828 41.1501 32.0028 41.3215C31.5228 41.493 31.1562 41.8872 31.02 42.3783L30.1035 45.4333L25.9832 33.4405C26.4535 33.0457 26.9819 32.726 27.5498 32.4927C28.7797 32.1637 30.6048 33.0018 32.0775 32.148C32.1558 32.101 31.8033 31.1923 35.9942 43.3967L33.4327 41.5167ZM8.71066 15.4317C9.83083 13.865 9.9875 13.348 9.80733 11.3192C9.62716 9.29033 9.73683 9.14933 11.562 8.31116C13.3872 7.473 13.7475 7.10483 14.5778 5.2875C15.4082 3.47017 15.6667 3.3605 17.5937 3.54067C19.5207 3.72083 20.1238 3.54067 21.7062 2.444C23.2885 1.34733 23.641 1.27683 25.2938 2.444C26.9467 3.61117 27.4167 3.713 29.4063 3.54067C31.396 3.36833 31.584 3.47017 32.4222 5.2875C33.2603 7.10483 33.6363 7.473 35.438 8.31116C37.2397 9.14933 37.3728 9.36083 37.1927 11.3192C37.0125 13.2775 37.1927 13.8572 38.2893 15.4317C39.386 17.0062 39.4565 17.3665 38.2893 19.0193C37.1222 20.6722 37.0125 21.103 37.1927 23.1318C37.3728 25.1607 37.2632 25.3017 35.438 26.1477C33.6128 26.9937 33.2603 27.3462 32.4222 29.1635C31.584 30.9808 31.3725 31.0905 29.4063 30.9182C27.4402 30.7458 26.8762 30.9182 25.2938 32.007C23.7115 33.0958 23.359 33.1742 21.7062 32.007C20.8897 31.2686 19.8303 30.856 18.7295 30.8477C17.6015 30.8477 16.3247 31.1688 15.6667 30.7928C14.7658 30.268 14.523 28.3723 13.4342 27.2913C12.3453 26.2103 10.4418 25.944 9.93266 25.0667C9.4235 24.1893 10.1442 22.4033 9.74466 20.9228C9.34516 19.4423 7.83333 18.2752 7.83333 17.2333C7.95198 16.5627 8.25587 15.9386 8.71066 15.4317Z" fill="#0068D6"/>
<path d="M23.5 28.9833C29.9894 28.9833 35.25 23.7227 35.25 17.2333C35.25 10.744 29.9894 5.48334 23.5 5.48334C17.0107 5.48334 11.75 10.744 11.75 17.2333C11.75 23.7227 17.0107 28.9833 23.5 28.9833ZM23.5 7.05C29.1241 7.05 33.6833 11.6092 33.6833 17.2333C33.6833 22.8574 29.1241 27.4167 23.5 27.4167C17.8759 27.4167 13.3167 22.8574 13.3167 17.2333C13.3167 14.5326 14.3896 11.9424 16.2993 10.0326C18.209 8.12289 20.7992 7.05 23.5 7.05Z" fill="#0068D6"/>
<path d="M18.0559 19.7635C18.4731 19.7426 18.8005 19.3979 18.8 18.9802C18.7632 17.5918 19.3085 16.2513 20.304 15.2828C21.4869 14.1078 22.8812 13.7945 24.5967 13.5047C25.7805 13.3011 26.9121 12.8644 27.9259 12.22C28.9442 16.1367 27.0877 20.9933 23.2259 22.278C22.3206 22.5759 21.3746 22.7319 20.4215 22.7402C21.5583 20.6208 23.1663 18.7904 25.1215 17.39C25.2902 17.2677 25.4032 17.0833 25.4355 16.8775C25.4678 16.6717 25.4169 16.4615 25.2939 16.2933C25.0396 15.947 24.5538 15.8701 24.205 16.121C21.6664 17.8804 19.6804 20.3255 18.4789 23.171C18.3982 23.3975 18.4262 23.6486 18.5546 23.8519C18.683 24.0552 18.8976 24.1883 19.1369 24.2128C23.2337 24.6515 26.9154 22.9908 28.7405 19.0428C29.9621 16.407 30.0806 13.3925 29.0695 10.669C28.9798 10.4459 28.7927 10.2764 28.5619 10.2092C28.3311 10.1419 28.0822 10.1844 27.8867 10.3243C26.8453 11.1388 25.6226 11.6897 24.3225 11.9302C22.4034 12.2513 20.6957 12.643 19.1839 14.1392C17.8829 15.4203 17.1758 17.1865 17.2334 19.0115C17.2415 19.2207 17.333 19.418 17.4875 19.5593C17.6421 19.7006 17.8467 19.7741 18.0559 19.7635Z" fill="#28A9E0"/>
</g>
<defs>
<clipPath id="clip0">
<rect width="47" height="47" fill="white"/>
</clipPath>
</defs>
</svg>
