<svg width="47" height="47" viewBox="0 0 47 47" fill="none" xmlns="http://www.w3.org/2000/svg">
<path d="M8.67178 41.7295C8.86553 41.8872 9.09871 41.964 9.33039 41.964C9.63365 41.964 9.93447 41.8325 10.1407 41.5791C10.5048 41.1318 10.4374 40.4741 9.99028 40.1101C6.90559 37.5989 4.62917 34.3463 3.33179 30.711C7.2592 31.5058 11.2967 32.0635 15.4045 32.3794C15.5958 34.2649 15.8488 36.0775 16.1605 37.7829C16.2642 38.3501 16.8079 38.7255 17.3752 38.6223C17.9425 38.5186 18.3183 37.9748 18.2147 37.4076C17.9322 35.8618 17.6994 34.2236 17.5185 32.5204C19.2179 32.6162 20.9287 32.6712 22.6474 32.6848C22.6501 32.6848 22.653 32.6848 22.6558 32.6848C23.2287 32.6848 23.6952 32.2227 23.6997 31.6489C23.7042 31.0722 23.2405 30.601 22.6639 30.5965C20.8736 30.5824 19.0925 30.5225 17.3242 30.4173C17.1475 28.181 17.0567 25.8562 17.0567 23.499C17.0567 21.5486 17.1179 19.6343 17.2359 17.785C19.2932 17.9228 21.3813 17.9919 23.4966 17.9919C25.6015 17.9919 27.6909 17.9218 29.7553 17.7826C29.8526 19.293 29.9119 20.8449 29.9303 22.4214C29.9371 22.9939 30.4031 23.4533 30.9741 23.4533C30.9782 23.4533 30.9824 23.4533 30.9865 23.4533C31.5631 23.4466 32.0251 22.9737 32.0184 22.3971C31.9994 20.7749 31.9377 19.1765 31.836 17.6181C34.1583 17.407 36.4443 17.1073 38.6803 16.7197C39.2484 16.6212 39.6293 16.0808 39.5308 15.5125C39.4323 14.9444 38.8917 14.5632 38.3237 14.6621C36.1517 15.0385 33.931 15.3302 31.6741 15.5359C31.229 10.6109 30.3765 6.19202 29.2127 2.85837C33.5791 4.05876 37.4766 6.63008 40.3565 10.3048C40.7123 10.7588 41.3685 10.8382 41.8224 10.4827C42.2763 10.127 42.356 9.47068 42.0002 9.01683C37.5104 3.28831 30.7662 0.00280762 23.4962 0.00280762C22.0768 0.00280762 20.6855 0.129494 19.3347 0.371847C19.3035 0.376139 19.2724 0.381708 19.2418 0.388785C11.5206 1.80693 5.10692 7.01177 2.00611 14.0004C1.97385 14.0582 1.94659 14.1198 1.92536 14.1847C0.687032 17.0418 0 20.1921 0 23.499C0 30.5984 3.16079 37.2432 8.67178 41.7295ZM20.2074 2.34327C21.2798 2.17725 22.378 2.09105 23.4962 2.09105C24.608 2.09105 25.7065 2.17539 26.7838 2.34048C28.1277 5.58956 29.1091 10.3148 29.5944 15.7004C27.5834 15.8356 25.5477 15.9035 23.4963 15.9035C21.4347 15.9035 19.399 15.8363 17.395 15.7027C17.8763 10.32 18.8531 5.61392 20.2074 2.34327ZM17.7758 2.86707C16.6063 6.21104 15.7578 10.6156 15.3159 15.5391C11.5537 15.1975 7.90946 14.6166 4.41397 13.8001C7.11349 8.5109 11.9495 4.48453 17.7758 2.86707ZM2.08824 23.499C2.08824 20.7641 2.60404 18.1466 3.54305 15.74C7.26199 16.6299 11.1447 17.2584 15.1554 17.6213C15.0321 19.5271 14.9682 21.4961 14.9682 23.499C14.9682 25.8007 15.0529 28.0745 15.2183 30.2701C10.9358 29.926 6.7347 29.3135 2.66054 28.4377C2.28326 26.8378 2.08824 25.1825 2.08824 23.499ZM38.641 2.38631C40.3612 1.99813 42.6757 1.79986 43.9357 3.05977C45.4084 4.53244 45.1873 7.84498 43.3291 12.1482C41.425 16.5572 37.9728 21.671 33.5595 26.6335C32.767 26.0518 31.7896 25.7079 30.7335 25.7079C28.0944 25.7079 25.9474 27.855 25.9474 30.4941C25.9474 33.1332 28.0944 35.2802 30.7335 35.2802C33.3726 35.2802 35.5196 33.1332 35.5196 30.4941C35.5196 29.6712 35.3108 28.896 34.9434 28.2189C39.5856 23.0321 43.2309 17.6427 45.2462 12.976C47.5269 7.69462 47.5844 3.75492 45.4125 1.58303C44.3461 0.516516 42.2257 -0.563223 38.1817 0.349224C37.6191 0.476143 37.266 1.0351 37.3929 1.59753C37.5198 2.15996 38.0787 2.51346 38.641 2.38631ZM30.7334 33.192C29.2457 33.192 28.0355 31.9817 28.0355 30.4941C28.0355 29.0064 29.2457 27.7962 30.7334 27.7962C32.221 27.7962 33.4313 29.0064 33.4313 30.4941C33.4313 31.9817 32.221 33.192 30.7334 33.192ZM25.8471 36.986C20.9292 41.0573 15.9064 44.1744 11.7038 45.7632C9.52889 46.5854 7.60399 46.9958 5.9689 46.9958C4.11489 46.9958 2.63339 46.4683 1.58022 45.4152C0.518697 44.3536 -0.558721 42.2449 0.336787 38.2273C0.462314 37.6645 1.02046 37.3099 1.58312 37.4354C2.14602 37.5608 2.50056 38.1188 2.37515 38.6816C1.99474 40.3883 1.80424 42.6857 3.05696 43.9385C4.39564 45.2773 7.20433 45.2316 10.9654 43.8098C14.9582 42.3004 19.7703 39.3057 24.5154 35.3773C24.9595 35.0097 25.6178 35.0716 25.9855 35.5157C26.3533 35.9599 26.2913 36.6182 25.8471 36.986ZM46.5227 18.8025C46.8346 20.3401 46.9928 21.9203 46.9928 23.499C46.9928 25.5859 46.7192 27.6106 46.2062 29.5381C46.1988 29.5733 46.1894 29.6078 46.1785 29.6418C43.8338 38.2894 36.6628 44.9735 27.7493 46.6099C27.7196 46.6166 27.6897 46.6221 27.6595 46.6262C26.3081 46.8688 24.9167 46.9955 23.4965 46.9955C21.7858 46.9955 20.0779 46.8105 18.4202 46.4455C17.857 46.3215 17.501 45.7644 17.625 45.2012C17.7489 44.638 18.3064 44.2819 18.8693 44.4061C20.3799 44.7387 21.9367 44.9073 23.4966 44.9073C24.6148 44.9073 25.7127 44.8212 26.785 44.6552C27.4908 42.9436 28.1199 40.7489 28.6152 38.2635C28.728 37.6981 29.2778 37.331 29.8432 37.4436C30.4088 37.5563 30.7758 38.1061 30.6631 38.6716C30.2539 40.7251 29.7698 42.5528 29.2174 44.1314C35.9266 42.2688 41.3211 37.2138 43.6544 30.7124C42.0374 31.0393 40.3944 31.3276 38.7499 31.5729C38.1791 31.6577 37.6484 31.2645 37.5632 30.6941C37.4782 30.1238 37.8716 29.5924 38.4419 29.5074C40.422 29.2121 42.3995 28.8531 44.3296 28.4385C44.7057 26.8523 44.9047 25.1989 44.9047 23.4993C44.9047 22.0595 44.7606 20.6191 44.4764 19.2178C44.3617 18.6527 44.7269 18.1016 45.292 17.987C45.8567 17.8723 46.4081 18.2372 46.5227 18.8025Z" fill="#0068D6"/>
</svg>
