<svg width="43" height="43" viewBox="0 0 43 43" fill="none" xmlns="http://www.w3.org/2000/svg">
<rect opacity="0.2" width="43" height="43" rx="12" fill="white"/>
<path d="M17.4929 30.1348C25.6302 30.1348 30.0801 23.3934 30.0801 17.5477C30.0801 17.3562 30.0761 17.1656 30.0675 16.9759C30.9312 16.3514 31.6819 15.5721 32.2743 14.6851C31.4816 15.0375 30.6285 15.2745 29.7338 15.3817C30.6471 14.8338 31.3483 13.9675 31.679 12.9347C30.8243 13.4415 29.8776 13.8096 28.8699 14.0085C28.0627 13.1486 26.9132 12.6108 25.6406 12.6108C23.1977 12.6108 21.2164 14.592 21.2164 17.0341C21.2164 17.3814 21.2553 17.719 21.3311 18.0429C17.6543 17.8579 14.3939 16.0976 12.2122 13.4208C11.8324 14.0744 11.6132 14.8339 11.6132 15.6444C11.6132 17.179 12.3943 18.5342 13.5818 19.3267C12.8561 19.3044 12.1743 19.1052 11.5783 18.7735C11.5776 18.7921 11.5776 18.8102 11.5776 18.83C11.5776 20.9725 13.1025 22.7614 15.127 23.1667C14.7552 23.2679 14.3639 23.3223 13.9604 23.3223C13.6759 23.3223 13.3984 23.2944 13.1289 23.2425C13.6921 25.0003 15.3254 26.2794 17.2617 26.3152C15.7475 27.502 13.84 28.2089 11.767 28.2089C11.4104 28.2089 11.058 28.1885 10.7117 28.1476C12.6696 29.4026 14.9945 30.135 17.4931 30.135" fill="white"/>
</svg>
