<svg width="43" height="43" viewBox="0 0 43 43" fill="none" xmlns="http://www.w3.org/2000/svg">
<rect opacity="0.2" width="43" height="43" rx="12" fill="white"/>
<path d="M30.9278 16.5793C30.701 15.7359 30.036 15.071 29.1927 14.8439C27.6521 14.4224 21.4895 14.4224 21.4895 14.4224C21.4895 14.4224 15.3272 14.4224 13.7866 14.8279C12.9595 15.0548 12.2783 15.736 12.0514 16.5793C11.646 18.1198 11.646 21.3146 11.646 21.3146C11.646 21.3146 11.646 24.5254 12.0514 26.0498C12.2785 26.8931 12.9433 27.558 13.7867 27.7851C15.3434 28.2067 21.4897 28.2067 21.4897 28.2067C21.4897 28.2067 27.6521 28.2067 29.1927 27.8012C30.0361 27.5742 30.701 26.9093 30.9281 26.066C31.3334 24.5254 31.3334 21.3308 31.3334 21.3308C31.3334 21.3308 31.3496 18.1198 30.9278 16.5793ZM19.5275 24.266V18.3631L24.652 21.3146L19.5275 24.266Z" fill="white"/>
</svg>
